<?xml version="1.0" standalone="no"?>
<!DOCTYPE svg PUBLIC "-//W3C//DTD SVG 20010904//EN"
 "http://www.w3.org/TR/2001/REC-SVG-20010904/DTD/svg10.dtd">
<svg version="1.0" xmlns="http://www.w3.org/2000/svg"
 width="700.000000pt" height="700.000000pt" viewBox="0 0 700.000000 700.000000"
 preserveAspectRatio="xMidYMid meet">
<metadata>
Created by potrace 1.14, written by Peter Selinger 2001-2017
</metadata>
<g transform="translate(0.000000,700.000000) scale(0.100000,-0.100000)"
fill="#000000" stroke="none">
<path d="M3278 6996 c-1 -2 -42 -6 -89 -10 -47 -4 -95 -8 -106 -10 -11 -3 -44
-7 -74 -11 -313 -38 -709 -158 -1024 -311 -180 -87 -448 -247 -555 -331 -8 -6
-51 -40 -95 -74 -353 -275 -673 -651 -897 -1054 -49 -87 -148 -289 -148 -301
0 -2 -9 -23 -20 -47 -57 -123 -157 -435 -186 -582 -2 -11 -10 -54 -19 -95 -22
-115 -30 -160 -41 -255 -26 -230 -26 -667 1 -826 2 -13 6 -46 9 -74 47 -408
239 -953 466 -1318 30 -48 60 -95 65 -105 45 -80 245 -339 345 -446 308 -330
623 -570 1010 -768 315 -161 707 -288 1025 -334 22 -3 47 -7 55 -9 8 -2 47 -7
85 -10 39 -4 82 -8 98 -10 l27 -4 -3 1287 c-1 708 -5 1296 -8 1307 -4 11 -10
38 -14 60 -79 398 -280 679 -560 784 -67 25 -129 38 -224 48 l-65 6 59 -49
c33 -26 67 -55 76 -64 31 -30 116 -137 139 -176 13 -21 27 -41 30 -44 11 -10
79 -147 114 -231 33 -80 89 -265 102 -334 3 -16 10 -52 14 -80 5 -27 12 -62
15 -76 4 -24 1 -27 -28 -33 -17 -3 -43 -8 -57 -11 -58 -11 -182 -19 -280 -18
-292 4 -555 117 -763 326 -108 108 -111 111 -194 238 -141 216 -250 498 -321
834 -28 130 -34 163 -48 270 -3 22 -7 54 -9 70 -3 17 -8 74 -11 128 l-7 97 24
1 c13 0 53 3 89 7 90 10 557 9 655 -1 103 -11 290 -43 369 -63 33 -9 68 -17
76 -19 18 -4 133 -42 174 -58 80 -32 234 -112 301 -157 191 -129 342 -319 417
-523 l22 -61 23 110 c26 123 27 129 42 167 6 15 9 27 7 27 -8 0 72 181 110
249 86 157 234 329 374 434 30 23 57 45 60 48 11 14 172 110 247 147 205 103
469 192 708 238 117 22 142 26 240 39 17 2 50 6 75 10 53 7 109 12 240 22 91
7 543 6 605 -1 17 -1 46 -4 66 -4 l36 -2 -3 -47 c-4 -96 -15 -250 -18 -269 -2
-10 -7 -55 -12 -99 -4 -44 -8 -82 -9 -85 0 -3 -4 -27 -9 -55 -4 -27 -9 -63
-12 -80 -35 -227 -110 -512 -198 -750 -79 -213 -219 -469 -345 -629 -91 -117
-248 -263 -366 -342 -250 -166 -502 -242 -831 -248 -88 -2 -178 -1 -200 3 -37
6 -39 8 -39 41 4 297 202 803 511 1307 35 58 64 107 64 109 0 7 -107 -38 -170
-73 -224 -121 -393 -308 -517 -569 -72 -153 -124 -331 -169 -589 -4 -22 -9
-610 -11 -1308 l-4 -1267 28 4 c15 2 59 7 96 11 37 3 78 8 90 11 12 2 38 6 57
9 19 3 46 7 60 10 14 3 41 8 60 11 97 17 289 68 430 114 178 57 568 235 660
300 15 11 33 20 39 20 6 0 11 5 11 10 0 6 4 10 9 10 16 0 212 134 322 220 157
122 331 284 459 429 36 41 70 79 76 85 6 6 48 61 94 121 150 197 277 405 383
628 26 53 47 99 47 102 0 2 11 28 24 57 57 127 151 421 182 573 16 77 54 301
60 350 4 33 9 76 11 95 8 69 10 517 3 595 -14 151 -21 210 -25 225 -2 8 -7 35
-10 60 -17 129 -80 384 -136 552 -348 1037 -1167 1857 -2204 2206 -168 57
-420 119 -555 137 -19 3 -46 7 -60 10 -13 2 -52 7 -86 11 -33 3 -74 8 -90 10
-32 5 -540 14 -546 10z"/>
</g>
</svg>
