<?xml version="1.0" standalone="no"?>
<!DOCTYPE svg PUBLIC "-//W3C//DTD SVG 20010904//EN"
 "http://www.w3.org/TR/2001/REC-SVG-20010904/DTD/svg10.dtd">
<svg version="1.0" xmlns="http://www.w3.org/2000/svg"
 width="512.000000pt" height="512.000000pt" viewBox="0 0 512.000000 512.000000"
 preserveAspectRatio="xMidYMid meet">
<metadata>
Created by potrace 1.11, written by Peter Selinger 2001-2013
</metadata>
<g transform="translate(0.000000,512.000000) scale(0.100000,-0.100000)"
fill="#000000" stroke="none">
<path d="M2488 4905 c-2 -2 -23 -6 -47 -10 -25 -4 -73 -18 -108 -32 -34 -14
-354 -192 -710 -395 -357 -204 -668 -382 -693 -396 -163 -89 -259 -154 -314
-208 -104 -104 -167 -233 -183 -375 -10 -90 -9 -1790 1 -1873 19 -155 115
-319 246 -418 32 -24 140 -88 260 -156 25 -14 88 -50 140 -80 52 -30 115 -66
140 -80 25 -14 261 -149 525 -300 264 -151 505 -288 537 -303 181 -90 407 -84
588 15 14 8 228 130 475 271 248 142 468 268 490 280 22 13 146 83 275 157
129 74 246 141 260 149 168 96 285 268 314 460 12 87 14 1791 2 1893 -16 131
-84 262 -188 365 -61 60 -133 104 -850 512 -431 246 -797 454 -815 463 -38 19
-105 41 -153 51 -35 8 -187 15 -192 10z m199 -466 c31 -18 331 -189 666 -381
335 -191 611 -348 613 -348 2 0 21 -11 42 -23 20 -13 74 -45 119 -72 68 -40
86 -56 110 -99 l28 -51 0 -894 c1 -989 4 -950 -63 -1013 -28 -26 -695 -415
-983 -573 -20 -11 -162 -92 -315 -180 l-279 -160 -65 0 -65 0 -545 311 c-300
172 -561 321 -580 332 -19 10 -84 48 -145 82 -60 35 -123 71 -140 80 -164 93
-198 123 -219 189 -12 39 -14 191 -12 936 2 987 -2 930 69 992 28 25 212 134
408 243 15 8 51 29 81 46 29 17 136 78 238 136 102 58 329 188 505 288 176
101 334 187 350 191 53 14 121 2 182 -32z"/>
</g>
</svg>
